<svg xmlns="http://www.w3.org/2000/svg" version="1.1" xmlns:xlink="http://www.w3.org/1999/xlink" width="200" height="200"><svg xmlns="http://www.w3.org/2000/svg" version="1.1" xmlns:xlink="http://www.w3.org/1999/xlink" width="200" height="200"><svg xmlns="http://www.w3.org/2000/svg" version="1.1" xmlns:xlink="http://www.w3.org/1999/xlink" viewBox="0 0 200 200"><rect width="200" height="200" fill="url('#gradient')"></rect><defs><linearGradient id="gradient" gradientTransform="rotate(45 0.5 0.5)"><stop offset="0%" stop-color="#ffffff"></stop><stop offset="100%" stop-color="#ffffff"></stop></linearGradient></defs><g><g fill="#ff0d00" transform="matrix(4.513996032620675,0,0,4.513996032620675,-4.6331442350434315,132.09876839799819)" stroke="#000000" stroke-width="0.2"><path d="M8.80-14.22L12.23-14.22L12.23-4.91Q12.23-3.33 11.55-2.17Q10.88-1.02 9.62-0.41Q8.36 0.20 6.64 0.20L6.64 0.20Q4.04 0.20 2.55-1.15Q1.05-2.50 1.03-4.84L1.03-4.84L1.03-14.22L4.47-14.22L4.47-4.78Q4.53-2.44 6.64-2.44L6.64-2.44Q7.71-2.44 8.25-3.03Q8.80-3.61 8.80-4.93L8.80-4.93L8.80-14.22ZM18.02-14.22L18.02 0L14.60 0L14.60-14.22L18.02-14.22ZM28.13-14.22L31.55-14.22L31.55-4.91Q31.55-3.33 30.88-2.17Q30.21-1.02 28.95-0.41Q27.69 0.20 25.97 0.20L25.97 0.20Q23.37 0.20 21.88-1.15Q20.38-2.50 20.35-4.84L20.35-4.84L20.35-14.22L23.80-14.22L23.80-4.78Q23.86-2.44 25.97-2.44L25.97-2.44Q27.03-2.44 27.58-3.03Q28.13-3.61 28.13-4.93L28.13-4.93L28.13-14.22ZM45.33-7.60L45.33-1.76Q44.54-0.88 43.02-0.34Q41.49 0.20 39.68 0.20L39.68 0.20Q36.88 0.20 35.21-1.51Q33.54-3.22 33.43-6.27L33.43-6.27L33.42-7.50Q33.42-9.60 34.16-11.17Q34.90-12.73 36.28-13.58Q37.67-14.42 39.48-14.42L39.48-14.42Q42.14-14.42 43.61-13.21Q45.08-11.99 45.32-9.58L45.32-9.58L42.02-9.58Q41.85-10.77 41.26-11.28Q40.67-11.79 39.60-11.79L39.60-11.79Q38.31-11.79 37.61-10.69Q36.90-9.60 36.89-7.57L36.89-7.57L36.89-6.71Q36.89-4.58 37.62-3.51Q38.35-2.44 39.91-2.44L39.91-2.44Q41.25-2.44 41.90-3.04L41.90-3.04L41.90-5.24L39.52-5.24L39.52-7.60L45.33-7.60Z"></path></g></g></svg></svg><style>@media (prefers-color-scheme: light) { :root { filter: none; } }
@media (prefers-color-scheme: dark) { :root { filter: none; } }
</style></svg>